<?xml version="1.0" encoding="utf-8"?>
<!-- Generator: Adobe Illustrator 21.0.0, SVG Export Plug-In . SVG Version: 6.00 Build 0)  -->
<svg version="1.1" id="图层_1" xmlns="http://www.w3.org/2000/svg" xmlns:xlink="http://www.w3.org/1999/xlink" x="0px" y="0px"
	 viewBox="0 0 22 30" style="enable-background:new 0 0 22 30;" xml:space="preserve">
<g>
	<path d="M21,0H5C4.4,0,4,0.4,4,1v1h4c0.7,0,1.4,0.4,1.7,1H20v17H10c0,1.1-0.9,2-2,2H4v1c0,0.6,0.4,1,1,1h16c0.6,0,1-0.4,1-1V1
		C22,0.4,21.6,0,21,0z M13,23c-0.6,0-1-0.4-1-1s0.4-1,1-1c0.6,0,1,0.4,1,1S13.6,23,13,23z"/>
	<path d="M9,20V4c0-0.6-0.4-1-1-1H6H4H1C0.4,3,0,3.4,0,4v16c0,0.6,0.4,1,1,1h3h4C8.6,21,9,20.6,9,20z M3,4h3v1H3V4z M1,18V6h7v12H1z
		 M4.5,20C4.2,20,4,19.8,4,19.5S4.2,19,4.5,19S5,19.2,5,19.5S4.8,20,4.5,20z"/>
</g>
</svg>
