<?xml version="1.0" encoding="utf-8"?>
<!-- Generator: Adobe Illustrator 21.0.0, SVG Export Plug-In . SVG Version: 6.00 Build 0)  -->
<svg version="1.1"
	 id="图层_1" xmlns:cc="http://creativecommons.org/ns#" xmlns:dc="http://purl.org/dc/elements/1.1/" xmlns:inkscape="http://www.inkscape.org/namespaces/inkscape" xmlns:rdf="http://www.w3.org/1999/02/22-rdf-syntax-ns#" xmlns:sodipodi="http://sodipodi.sourceforge.net/DTD/sodipodi-0.dtd" xmlns:svg="http://www.w3.org/2000/svg"
	 xmlns="http://www.w3.org/2000/svg" xmlns:xlink="http://www.w3.org/1999/xlink" x="0px" y="0px" viewBox="0 0 100 125"
	 style="enable-background:new 0 0 100 125;" xml:space="preserve">
<g transform="translate(0,-952.36218)">
	<path d="M50,957.4c-24.8,0-45,20.2-45,45c0,24.8,20.2,45,45,45s45-20.2,45-45C95,977.5,74.8,957.4,50,957.4z M47,963.9v18.5H33.8
		c0.9-3.1,2-5.9,3.2-8.3C39.9,968.5,43.4,965.1,47,963.9z M53,963.9c3.6,1.2,7.1,4.7,10,10.2c1.3,2.4,2.3,5.2,3.2,8.3H53V963.9z
		 M34.6,966.5c-1.1,1.5-2,3.1-2.9,4.8c-1.7,3.3-3.1,7-4.2,11.1h-11C20.7,975.3,27,969.8,34.6,966.5z M65.4,966.5
		c7.6,3.3,13.9,8.8,18.1,15.8h-11c-1.1-4.1-2.5-7.8-4.2-11.1C67.4,969.6,66.5,968,65.4,966.5z M13.6,988.4h12.6
		c-0.6,3.5-1,7.2-1.1,11H11.1C11.4,995.5,12.3,991.8,13.6,988.4z M32.3,988.4H47v11H31.1C31.2,995.5,31.6,991.8,32.3,988.4z
		 M53,988.4h14.7c0.7,3.5,1.1,7.1,1.2,11H53V988.4z M73.8,988.4h12.6c1.3,3.5,2.2,7.2,2.5,11H74.9C74.8,995.5,74.4,991.9,73.8,988.4
		z M11.1,1005.4h13.9c0.1,3.8,0.5,7.5,1.1,11H13.6C12.3,1012.9,11.4,1009.2,11.1,1005.4z M31.1,1005.4H47v11H32.3
		C31.6,1012.9,31.2,1009.2,31.1,1005.4z M53,1005.4h15.9c-0.1,3.9-0.6,7.5-1.2,11H53V1005.4z M74.9,1005.4h13.9
		c-0.3,3.8-1.1,7.5-2.5,11H73.8C74.4,1012.9,74.8,1009.2,74.9,1005.4z M16.5,1022.4h11c1.1,4.1,2.5,7.8,4.2,11.1
		c0.9,1.7,1.9,3.3,2.9,4.8C27,1035,20.7,1029.4,16.5,1022.4z M33.8,1022.4H47v18.5c-3.6-1.2-7.1-4.7-10-10.2
		C35.7,1028.2,34.7,1025.4,33.8,1022.4z M53,1022.4h13.2c-0.9,3.1-2,5.9-3.2,8.3c-2.9,5.5-6.4,9-10,10.2V1022.4z M72.5,1022.4h11
		c-4.2,7-10.6,12.6-18.2,15.9c1.1-1.5,2-3.1,2.9-4.8C70,1030.1,71.4,1026.4,72.5,1022.4z"/>
</g>
</svg>
