<?xml version="1.0" encoding="utf-8"?>
<!-- Generator: Adobe Illustrator 21.0.0, SVG Export Plug-In . SVG Version: 6.00 Build 0)  -->
<svg version="1.1"
	 id="图层_1" xmlns:cc="http://creativecommons.org/ns#" xmlns:dc="http://purl.org/dc/elements/1.1/" xmlns:inkscape="http://www.inkscape.org/namespaces/inkscape" xmlns:rdf="http://www.w3.org/1999/02/22-rdf-syntax-ns#" xmlns:sodipodi="http://sodipodi.sourceforge.net/DTD/sodipodi-0.dtd" xmlns:svg="http://www.w3.org/2000/svg"
	 xmlns="http://www.w3.org/2000/svg" xmlns:xlink="http://www.w3.org/1999/xlink" x="0px" y="0px" viewBox="0 0 459.8 509.8"
	 style="enable-background:new 0 0 459.8 509.8;" xml:space="preserve">
<g transform="translate(-130.59589,-221.86569)">
	<path d="M360.5,221.9c-44.9,0-86.7,20.1-114.8,55.1c-3,3.7-2.4,9.2,1.4,12.1c1.7,1.3,3.5,1.9,5.4,1.9c2.5,0,5.1-1.1,6.8-3.2
		c24.8-30.9,61.7-48.6,101.2-48.6s76.4,17.8,101.2,48.6c3,3.7,8.5,4.3,12.2,1.3c3.7-3,4.3-8.4,1.3-12.1
		C447.1,242,405.3,221.9,360.5,221.9L360.5,221.9z M193,237.4c-4.9,1.3-7.5,8.2-5.7,15.6l45,193.7h-5.9c-7.9,0-15.4,3.1-21,8.6
		l-65.2,64.6c-7.3,7.3-2.1,19.8,8.3,19.8h424.4c10.4,0,15.5-12.5,8.2-19.8l-65.2-64.6c-5.6-5.5-13.2-8.6-21-8.6h-11.7L527.9,253
		c1.7-7.5-0.8-14.3-5.7-15.6c-4.9-1.3-10.5,3.6-12.6,10.9l-56.1,198.4H261.6l-56-198.4C203.5,240.9,197.9,236.1,193,237.4L193,237.4
		z M360.5,259.3c-33.4,0-64.5,15-85.4,41c-3,3.7-2.4,9.2,1.3,12.1c3.7,3,9.2,2.4,12.2-1.3c17.6-21.9,43.8-34.5,71.9-34.5
		c28,0,54.3,12.6,71.9,34.5c1.7,2.1,4.3,3.2,6.8,3.2c1.9,0,3.8-0.7,5.4-1.9c3.7-3,4.3-8.5,1.3-12.2
		C425.1,274.3,393.9,259.3,360.5,259.3L360.5,259.3z M360.5,299.4c-21.2,0-41,9.5-54.3,26.1c-3,3.7-2.4,9.2,1.4,12.1
		c1.6,1.3,3.4,1.9,5.3,1.9c2.5,0,5.1-1.1,6.8-3.2c10-12.4,24.8-19.6,40.7-19.6c15.9,0,30.8,7.1,40.8,19.5c3.1,3.8,8.5,4.4,12.2,1.4
		c3.7-3,4.4-8.4,1.4-12.1C401.4,308.9,381.7,299.4,360.5,299.4L360.5,299.4z M359.4,345.7c-8.3,0.6-14.7,7.5-14.7,15.8
		c0,8.7,7.1,15.8,15.8,15.8c8.7,0,15.8-7,15.9-15.7c0,0,0,0,0-0.1c0-8.7-7.1-15.8-15.8-15.8c0,0,0,0-0.1,0
		C360.1,345.6,359.8,345.6,359.4,345.7z M149.8,551.1c-10.6,0-19.2,8.6-19.2,19.2v40.3c0,10.6,8.6,19.2,19.2,19.2h421.4
		c10.6,0,19.3-8.6,19.3-19.2v-40.3c0-10.6-8.6-19.2-19.3-19.2H149.8L149.8,551.1z M193.3,579.6c6,0,10.8,4.8,10.8,10.8
		c0,6-4.9,10.8-10.8,10.8c-6,0-10.8-4.8-10.8-10.8C182.5,584.4,187.3,579.6,193.3,579.6z M249,579.6c6,0,10.8,4.8,10.8,10.8
		c0,6-4.9,10.8-10.8,10.8c-6,0-10.8-4.8-10.8-10.8C238.2,584.4,243,579.6,249,579.6z M304.7,579.6c6,0,10.8,4.8,10.8,10.8
		c0,6-4.8,10.8-10.8,10.8c-6,0-10.8-4.8-10.8-10.8C293.9,584.4,298.7,579.6,304.7,579.6z M360.5,579.6c6,0,10.9,4.8,10.9,10.8
		c0,6-5,10.8-10.9,10.8c-6,0-10.8-4.8-10.8-10.8C349.6,584.4,354.4,579.6,360.5,579.6z M412.4,586.1h129.5v8.6H412.4V586.1z"/>
</g>
</svg>
